<svg xmlns="http://www.w3.org/2000/svg" viewBox="0 0 1200 900" role="img" aria-labelledby="title desc">
  <title id="title">Eagle Nebula</title>
  <desc id="desc">Illustrated nebula scene for local UI development.</desc>
  <defs>
    <linearGradient id="bg" x1="0" y1="0" x2="1" y2="1">
      <stop offset="0%" stop-color="#1a1038"/>
      <stop offset="45%" stop-color="#5523a7"/>
      <stop offset="100%" stop-color="#ef7f1a"/>
    </linearGradient>
    <radialGradient id="gas" cx="55%" cy="40%" r="55%">
      <stop offset="0%" stop-color="#ffe4ba" stop-opacity="0.95"/>
      <stop offset="55%" stop-color="#f97316" stop-opacity="0.35"/>
      <stop offset="100%" stop-color="#f97316" stop-opacity="0"/>
    </radialGradient>
  </defs>
  <rect width="1200" height="900" fill="url(#bg)"/>
  <rect width="1200" height="900" fill="url(#gas)"/>
  <g fill="#fff7ed" opacity="0.88">
    <circle cx="90" cy="124" r="1.8"/>
    <circle cx="260" cy="210" r="2.0"/>
    <circle cx="438" cy="134" r="1.6"/>
    <circle cx="580" cy="245" r="2.0"/>
    <circle cx="790" cy="172" r="1.8"/>
    <circle cx="936" cy="236" r="2.2"/>
    <circle cx="1056" cy="116" r="1.8"/>
    <circle cx="862" cy="642" r="1.7"/>
  </g>
  <path d="M210 770 C260 640, 300 495, 330 318 C358 470, 385 630, 442 780" fill="#26152b" fill-opacity="0.88"/>
  <path d="M410 792 C472 630, 500 460, 546 266 C566 440, 590 640, 642 790" fill="#342036" fill-opacity="0.84"/>
  <path d="M620 786 C652 662, 690 520, 748 312 C768 470, 790 620, 846 785" fill="#211423" fill-opacity="0.82"/>
  <path d="M180 258 C355 180, 492 168, 660 224 S930 330, 1120 248" fill="none" stroke="#ffedd5" stroke-opacity="0.46" stroke-width="36" stroke-linecap="round"/>
  <path d="M145 400 C300 332, 475 314, 690 370 S960 468, 1138 420" fill="none" stroke="#fdba74" stroke-opacity="0.34" stroke-width="26" stroke-linecap="round"/>
</svg>
